<svg xmlns="http://www.w3.org/2000/svg" xmlns:xlink="http://www.w3.org/1999/xlink" width="40" zoomAndPan="magnify" viewBox="0 0 30 30.000001" height="40" preserveAspectRatio="xMidYMid meet" version="1.0"><defs><filter x="0%" y="0%" width="100%" height="100%" id="700be82864"><feColorMatrix values="0 0 0 0 1 0 0 0 0 1 0 0 0 0 1 0 0 0 1 0" color-interpolation-filters="sRGB"/></filter><g/><clipPath id="b3013c820d"><path d="M 0.484375 0 L 29.515625 0 L 29.515625 29.03125 L 0.484375 29.03125 Z M 0.484375 0 " clip-rule="nonzero"/></clipPath><clipPath id="b1819feb91"><path d="M 0.484375 0 L 29.515625 0 L 29.515625 29.03125 L 0.484375 29.03125 Z M 0.484375 0 " clip-rule="nonzero"/></clipPath><clipPath id="3888c623b7"><path d="M 0.484375 0 L 29.515625 0 L 29.515625 29.03125 L 0.484375 29.03125 Z M 0.484375 0 " clip-rule="nonzero"/></clipPath><clipPath id="460877c439"><path d="M 0.484375 0 L 29.515625 0 L 29.515625 29.03125 L 0.484375 29.03125 Z M 0.484375 0 " clip-rule="nonzero"/></clipPath><linearGradient x1="-0.266491" gradientTransform="matrix(0.971019, 0, 0, 0.969156, 0.742638, 3.024278)" y1="8" x2="29.632257" gradientUnits="userSpaceOnUse" y2="8" id="eb3a0ef053"><stop stop-opacity="1" stop-color="rgb(4.309082%, 15.689087%, 63.919067%)" offset="0"/><stop stop-opacity="1" stop-color="rgb(4.309082%, 15.689087%, 63.919067%)" offset="0.25"/><stop stop-opacity="1" stop-color="rgb(4.309082%, 15.689087%, 63.919067%)" offset="0.375"/><stop stop-opacity="1" stop-color="rgb(4.309082%, 15.689087%, 63.919067%)" offset="0.4375"/><stop stop-opacity="1" stop-color="rgb(4.309082%, 15.689087%, 63.919067%)" offset="0.46875"/><stop stop-opacity="1" stop-color="rgb(4.302979%, 16.711426%, 64.352417%)" offset="0.472656"/><stop stop-opacity="1" stop-color="rgb(4.298401%, 17.733765%, 64.787292%)" offset="0.476562"/><stop stop-opacity="1" stop-color="rgb(4.293823%, 18.762207%, 65.223694%)" offset="0.480469"/><stop stop-opacity="1" stop-color="rgb(4.289246%, 19.790649%, 65.661621%)" offset="0.484375"/><stop stop-opacity="1" stop-color="rgb(4.283142%, 20.819092%, 66.098022%)" offset="0.488281"/><stop stop-opacity="1" stop-color="rgb(4.278564%, 21.847534%, 66.53595%)" offset="0.492188"/><stop stop-opacity="1" stop-color="rgb(4.272461%, 22.875977%, 66.972351%)" offset="0.496094"/><stop stop-opacity="1" stop-color="rgb(4.267883%, 23.904419%, 67.410278%)" offset="0.5"/><stop stop-opacity="1" stop-color="rgb(4.263306%, 24.932861%, 67.84668%)" offset="0.503906"/><stop stop-opacity="1" stop-color="rgb(4.258728%, 25.961304%, 68.284607%)" offset="0.507812"/><stop stop-opacity="1" stop-color="rgb(4.252625%, 26.989746%, 68.721008%)" offset="0.511719"/><stop stop-opacity="1" stop-color="rgb(4.248047%, 28.018188%, 69.158936%)" offset="0.515625"/><stop stop-opacity="1" stop-color="rgb(4.241943%, 29.046631%, 69.595337%)" offset="0.519531"/><stop stop-opacity="1" stop-color="rgb(4.237366%, 30.075073%, 70.033264%)" offset="0.523438"/><stop stop-opacity="1" stop-color="rgb(4.232788%, 31.103516%, 70.469666%)" offset="0.527344"/><stop stop-opacity="1" stop-color="rgb(4.22821%, 32.133484%, 70.907593%)" offset="0.53125"/><stop stop-opacity="1" stop-color="rgb(4.222107%, 33.161926%, 71.343994%)" offset="0.535156"/><stop stop-opacity="1" stop-color="rgb(4.217529%, 34.190369%, 71.781921%)" offset="0.539062"/><stop stop-opacity="1" stop-color="rgb(4.211426%, 35.218811%, 72.218323%)" offset="0.542969"/><stop stop-opacity="1" stop-color="rgb(4.206848%, 36.247253%, 72.65625%)" offset="0.546875"/><stop stop-opacity="1" stop-color="rgb(4.200745%, 37.275696%, 73.092651%)" offset="0.550781"/><stop stop-opacity="1" stop-color="rgb(4.196167%, 38.304138%, 73.529053%)" offset="0.554688"/><stop stop-opacity="1" stop-color="rgb(4.191589%, 39.332581%, 73.965454%)" offset="0.558594"/><stop stop-opacity="1" stop-color="rgb(4.187012%, 40.361023%, 74.403381%)" offset="0.5625"/><stop stop-opacity="1" stop-color="rgb(4.180908%, 41.389465%, 74.839783%)" offset="0.566406"/><stop stop-opacity="1" stop-color="rgb(4.176331%, 42.417908%, 75.27771%)" offset="0.570312"/><stop stop-opacity="1" stop-color="rgb(4.170227%, 43.44635%, 75.714111%)" offset="0.574219"/><stop stop-opacity="1" stop-color="rgb(4.165649%, 44.474792%, 76.152039%)" offset="0.578125"/><stop stop-opacity="1" stop-color="rgb(4.161072%, 45.503235%, 76.58844%)" offset="0.582031"/><stop stop-opacity="1" stop-color="rgb(4.156494%, 46.531677%, 77.026367%)" offset="0.585938"/><stop stop-opacity="1" stop-color="rgb(4.150391%, 47.56012%, 77.462769%)" offset="0.589844"/><stop stop-opacity="1" stop-color="rgb(4.145813%, 48.588562%, 77.900696%)" offset="0.59375"/><stop stop-opacity="1" stop-color="rgb(4.139709%, 49.617004%, 78.337097%)" offset="0.597656"/><stop stop-opacity="1" stop-color="rgb(4.135132%, 50.645447%, 78.775024%)" offset="0.601562"/><stop stop-opacity="1" stop-color="rgb(4.129028%, 51.673889%, 79.211426%)" offset="0.605469"/><stop stop-opacity="1" stop-color="rgb(4.124451%, 52.703857%, 79.649353%)" offset="0.609375"/><stop stop-opacity="1" stop-color="rgb(4.119873%, 53.7323%, 80.085754%)" offset="0.613281"/><stop stop-opacity="1" stop-color="rgb(4.115295%, 54.760742%, 80.523682%)" offset="0.617188"/><stop stop-opacity="1" stop-color="rgb(4.109192%, 55.789185%, 80.960083%)" offset="0.621094"/><stop stop-opacity="1" stop-color="rgb(4.104614%, 56.817627%, 81.396484%)" offset="0.625"/><stop stop-opacity="1" stop-color="rgb(4.098511%, 57.846069%, 81.832886%)" offset="0.628906"/><stop stop-opacity="1" stop-color="rgb(4.093933%, 58.874512%, 82.270813%)" offset="0.632812"/><stop stop-opacity="1" stop-color="rgb(4.089355%, 59.902954%, 82.707214%)" offset="0.636719"/><stop stop-opacity="1" stop-color="rgb(4.084778%, 60.931396%, 83.145142%)" offset="0.640625"/><stop stop-opacity="1" stop-color="rgb(4.078674%, 61.959839%, 83.581543%)" offset="0.644531"/><stop stop-opacity="1" stop-color="rgb(4.074097%, 62.988281%, 84.01947%)" offset="0.648437"/><stop stop-opacity="1" stop-color="rgb(4.067993%, 64.016724%, 84.455872%)" offset="0.652344"/><stop stop-opacity="1" stop-color="rgb(4.063416%, 65.045166%, 84.893799%)" offset="0.65625"/><stop stop-opacity="1" stop-color="rgb(4.058838%, 66.073608%, 85.3302%)" offset="0.660156"/><stop stop-opacity="1" stop-color="rgb(4.05426%, 67.102051%, 85.768127%)" offset="0.664063"/><stop stop-opacity="1" stop-color="rgb(4.048157%, 68.130493%, 86.204529%)" offset="0.667969"/><stop stop-opacity="1" stop-color="rgb(4.043579%, 69.158936%, 86.642456%)" offset="0.671875"/><stop stop-opacity="1" stop-color="rgb(4.037476%, 70.187378%, 87.078857%)" offset="0.675781"/><stop stop-opacity="1" stop-color="rgb(4.032898%, 71.21582%, 87.516785%)" offset="0.679688"/><stop stop-opacity="1" stop-color="rgb(4.026794%, 72.244263%, 87.953186%)" offset="0.683594"/><stop stop-opacity="1" stop-color="rgb(4.022217%, 73.274231%, 88.391113%)" offset="0.6875"/><stop stop-opacity="1" stop-color="rgb(4.017639%, 74.302673%, 88.827515%)" offset="0.691406"/><stop stop-opacity="1" stop-color="rgb(4.013062%, 75.331116%, 89.265442%)" offset="0.695312"/><stop stop-opacity="1" stop-color="rgb(4.006958%, 76.359558%, 89.701843%)" offset="0.699219"/><stop stop-opacity="1" stop-color="rgb(4.00238%, 77.388%, 90.138245%)" offset="0.703125"/><stop stop-opacity="1" stop-color="rgb(3.996277%, 78.416443%, 90.574646%)" offset="0.707031"/><stop stop-opacity="1" stop-color="rgb(3.991699%, 79.444885%, 91.012573%)" offset="0.710938"/><stop stop-opacity="1" stop-color="rgb(3.987122%, 80.473328%, 91.448975%)" offset="0.714844"/><stop stop-opacity="1" stop-color="rgb(3.982544%, 81.50177%, 91.886902%)" offset="0.71875"/><stop stop-opacity="1" stop-color="rgb(3.97644%, 82.530212%, 92.323303%)" offset="0.722656"/><stop stop-opacity="1" stop-color="rgb(3.971863%, 83.558655%, 92.76123%)" offset="0.726562"/><stop stop-opacity="1" stop-color="rgb(3.965759%, 84.587097%, 93.197632%)" offset="0.730469"/><stop stop-opacity="1" stop-color="rgb(3.961182%, 85.61554%, 93.635559%)" offset="0.734375"/><stop stop-opacity="1" stop-color="rgb(3.956604%, 86.643982%, 94.07196%)" offset="0.738281"/><stop stop-opacity="1" stop-color="rgb(3.952026%, 87.672424%, 94.509888%)" offset="0.742188"/><stop stop-opacity="1" stop-color="rgb(3.945923%, 88.700867%, 94.946289%)" offset="0.746094"/><stop stop-opacity="1" stop-color="rgb(3.941345%, 89.729309%, 95.384216%)" offset="0.75"/><stop stop-opacity="1" stop-color="rgb(3.935242%, 90.757751%, 95.820618%)" offset="0.753906"/><stop stop-opacity="1" stop-color="rgb(3.930664%, 91.786194%, 96.258545%)" offset="0.757812"/><stop stop-opacity="1" stop-color="rgb(3.924561%, 92.814636%, 96.694946%)" offset="0.761719"/><stop stop-opacity="1" stop-color="rgb(3.919983%, 93.844604%, 97.132874%)" offset="0.765625"/><stop stop-opacity="1" stop-color="rgb(3.919983%, 93.981934%, 97.190857%)" offset="0.78125"/><stop stop-opacity="1" stop-color="rgb(3.919983%, 94.119263%, 97.24884%)" offset="0.8125"/><stop stop-opacity="1" stop-color="rgb(3.919983%, 94.119263%, 97.24884%)" offset="0.875"/><stop stop-opacity="1" stop-color="rgb(3.919983%, 94.119263%, 97.24884%)" offset="1"/></linearGradient><clipPath id="984ee402c0"><rect x="0" width="30" y="0" height="30"/></clipPath><clipPath id="d14013c2fb"><path d="M 0.484375 0 L 29.515625 0 L 29.515625 29.03125 L 0.484375 29.03125 Z M 0.484375 0 " clip-rule="nonzero"/></clipPath><clipPath id="299a722f2c"><rect x="0" width="30" y="0" height="30"/></clipPath><clipPath id="b77befe5c6"><rect x="0" width="30" y="0" height="30"/></clipPath><mask id="9dec63c4b6"><g filter="url(#700be82864)"><g transform="matrix(1, 0, 0, 1, 0, 0.000000000000005692)"><g clip-path="url(#b77befe5c6)"><g clip-path="url(#d14013c2fb)"><g transform="matrix(1, 0, 0, 1, 0, 0.000000000000005692)"><g clip-path="url(#299a722f2c)"><g fill="#000000" fill-opacity="1"><g transform="translate(13.813368, 14.655198)"><g><path d="M 8.703125 0.265625 L 8.875 0.34375 C 8.78125 0.65625 8.671875 0.914062 8.546875 1.125 C 8.429688 1.34375 8.296875 1.523438 8.140625 1.671875 C 7.992188 1.796875 7.796875 1.910156 7.546875 2.015625 C 7.296875 2.128906 6.972656 2.1875 6.578125 2.1875 C 6.160156 2.1875 5.757812 2.117188 5.375 1.984375 C 5 1.847656 4.601562 1.679688 4.1875 1.484375 C 3.78125 1.296875 3.328125 1.117188 2.828125 0.953125 C 2.773438 0.941406 2.722656 0.925781 2.671875 0.90625 C 2.628906 0.894531 2.585938 0.882812 2.546875 0.875 C 2.398438 0.925781 2.238281 0.96875 2.0625 1 C 1.894531 1.03125 1.734375 1.046875 1.578125 1.046875 C 1.421875 1.046875 1.289062 1.023438 1.1875 0.984375 C 1.09375 0.953125 1.046875 0.894531 1.046875 0.8125 C 1.046875 0.65625 1.253906 0.578125 1.671875 0.578125 C 1.941406 0.578125 2.234375 0.601562 2.546875 0.65625 C 2.828125 0.582031 3.066406 0.492188 3.265625 0.390625 C 3.472656 0.296875 3.679688 0.207031 3.890625 0.125 C 4.109375 0.0390625 4.367188 -0.0078125 4.671875 -0.03125 L 4.671875 0.15625 C 4.441406 0.175781 4.238281 0.21875 4.0625 0.28125 C 3.894531 0.351562 3.726562 0.425781 3.5625 0.5 C 3.394531 0.570312 3.191406 0.644531 2.953125 0.71875 C 3.335938 0.800781 3.757812 0.882812 4.21875 0.96875 C 4.675781 1.050781 5.117188 1.125 5.546875 1.1875 C 5.972656 1.25 6.335938 1.28125 6.640625 1.28125 C 7.203125 1.28125 7.644531 1.195312 7.96875 1.03125 C 8.289062 0.875 8.535156 0.617188 8.703125 0.265625 Z M 4.3125 -8.40625 C 5.050781 -8.40625 5.695312 -8.238281 6.25 -7.90625 C 6.8125 -7.570312 7.242188 -7.09375 7.546875 -6.46875 C 7.859375 -5.84375 8.015625 -5.082031 8.015625 -4.1875 C 8.015625 -3.320312 7.851562 -2.5625 7.53125 -1.90625 C 7.21875 -1.257812 6.78125 -0.753906 6.21875 -0.390625 C 5.664062 -0.0234375 5.03125 0.15625 4.3125 0.15625 C 3.570312 0.15625 2.921875 -0.0078125 2.359375 -0.34375 C 1.804688 -0.675781 1.375 -1.15625 1.0625 -1.78125 C 0.757812 -2.40625 0.609375 -3.160156 0.609375 -4.046875 C 0.609375 -4.921875 0.769531 -5.679688 1.09375 -6.328125 C 1.414062 -6.984375 1.851562 -7.492188 2.40625 -7.859375 C 2.957031 -8.222656 3.59375 -8.40625 4.3125 -8.40625 Z M 4.265625 -8.1875 C 3.765625 -8.1875 3.328125 -8.007812 2.953125 -7.65625 C 2.578125 -7.3125 2.285156 -6.832031 2.078125 -6.21875 C 1.878906 -5.613281 1.78125 -4.90625 1.78125 -4.09375 C 1.78125 -3.269531 1.894531 -2.550781 2.125 -1.9375 C 2.351562 -1.332031 2.660156 -0.863281 3.046875 -0.53125 C 3.441406 -0.207031 3.878906 -0.046875 4.359375 -0.046875 C 4.859375 -0.046875 5.296875 -0.21875 5.671875 -0.5625 C 6.046875 -0.914062 6.332031 -1.398438 6.53125 -2.015625 C 6.738281 -2.628906 6.84375 -3.335938 6.84375 -4.140625 C 6.84375 -4.972656 6.726562 -5.691406 6.5 -6.296875 C 6.269531 -6.898438 5.960938 -7.363281 5.578125 -7.6875 C 5.191406 -8.019531 4.753906 -8.1875 4.265625 -8.1875 Z M 4.265625 -8.1875 "/></g></g></g></g></g></g></g></g></g></mask><clipPath id="86a96e1f6b"><path d="M 0.484375 0 L 29.515625 0 L 29.515625 29.03125 L 0.484375 29.03125 Z M 0.484375 0 " clip-rule="nonzero"/></clipPath><clipPath id="c274cb43e8"><rect x="0" width="30" y="0" height="30"/></clipPath><clipPath id="b9d5524533"><rect x="0" width="30" y="0" height="30"/></clipPath><clipPath id="29f26a378a"><rect x="0" width="30" y="0" height="30"/></clipPath></defs><g clip-path="url(#b3013c820d)"><g transform="matrix(1, 0, 0, 1, 0, 0.000000000000005692)"><g clip-path="url(#29f26a378a)"><g fill="#040b2b" fill-opacity="1"><g transform="translate(7.527298, 14.655198)"><g><path d="M 2.984375 -8.375 C 3.367188 -8.375 3.660156 -8.328125 3.859375 -8.234375 C 4.066406 -8.148438 4.25 -8.050781 4.40625 -7.9375 C 4.5 -7.882812 4.570312 -7.84375 4.625 -7.8125 C 4.6875 -7.789062 4.742188 -7.78125 4.796875 -7.78125 C 4.867188 -7.78125 4.921875 -7.820312 4.953125 -7.90625 C 4.992188 -7.988281 5.023438 -8.113281 5.046875 -8.28125 L 5.3125 -8.28125 C 5.3125 -8.15625 5.300781 -8 5.28125 -7.8125 C 5.269531 -7.632812 5.265625 -7.394531 5.265625 -7.09375 C 5.265625 -6.789062 5.265625 -6.394531 5.265625 -5.90625 L 5 -5.90625 C 4.96875 -6.28125 4.882812 -6.640625 4.75 -6.984375 C 4.613281 -7.328125 4.410156 -7.601562 4.140625 -7.8125 C 3.867188 -8.03125 3.515625 -8.140625 3.078125 -8.140625 C 2.671875 -8.140625 2.332031 -8.015625 2.0625 -7.765625 C 1.800781 -7.523438 1.671875 -7.203125 1.671875 -6.796875 C 1.671875 -6.453125 1.757812 -6.160156 1.9375 -5.921875 C 2.113281 -5.679688 2.347656 -5.46875 2.640625 -5.28125 C 2.941406 -5.09375 3.269531 -4.890625 3.625 -4.671875 C 4.019531 -4.421875 4.375 -4.171875 4.6875 -3.921875 C 5.007812 -3.679688 5.257812 -3.410156 5.4375 -3.109375 C 5.625 -2.816406 5.71875 -2.460938 5.71875 -2.046875 C 5.71875 -1.546875 5.601562 -1.132812 5.375 -0.8125 C 5.15625 -0.488281 4.859375 -0.242188 4.484375 -0.078125 C 4.109375 0.078125 3.695312 0.15625 3.25 0.15625 C 2.832031 0.15625 2.503906 0.109375 2.265625 0.015625 C 2.023438 -0.0664062 1.820312 -0.160156 1.65625 -0.265625 C 1.476562 -0.378906 1.34375 -0.4375 1.25 -0.4375 C 1.175781 -0.4375 1.117188 -0.390625 1.078125 -0.296875 C 1.046875 -0.210938 1.019531 -0.0859375 1 0.078125 L 0.734375 0.078125 C 0.742188 -0.078125 0.75 -0.265625 0.75 -0.484375 C 0.757812 -0.710938 0.765625 -1.003906 0.765625 -1.359375 C 0.773438 -1.710938 0.78125 -2.164062 0.78125 -2.71875 L 1.046875 -2.71875 C 1.078125 -2.25 1.164062 -1.8125 1.3125 -1.40625 C 1.457031 -1 1.675781 -0.671875 1.96875 -0.421875 C 2.269531 -0.179688 2.671875 -0.0625 3.171875 -0.0625 C 3.421875 -0.0625 3.660156 -0.113281 3.890625 -0.21875 C 4.117188 -0.332031 4.304688 -0.503906 4.453125 -0.734375 C 4.597656 -0.960938 4.671875 -1.257812 4.671875 -1.625 C 4.671875 -1.9375 4.59375 -2.210938 4.4375 -2.453125 C 4.289062 -2.691406 4.082031 -2.910156 3.8125 -3.109375 C 3.539062 -3.316406 3.222656 -3.53125 2.859375 -3.75 C 2.492188 -3.96875 2.148438 -4.191406 1.828125 -4.421875 C 1.515625 -4.660156 1.265625 -4.929688 1.078125 -5.234375 C 0.890625 -5.546875 0.796875 -5.921875 0.796875 -6.359375 C 0.796875 -6.816406 0.894531 -7.191406 1.09375 -7.484375 C 1.300781 -7.785156 1.570312 -8.007812 1.90625 -8.15625 C 2.238281 -8.300781 2.597656 -8.375 2.984375 -8.375 Z M 2.984375 -8.375 "/></g></g></g><g clip-path="url(#b1819feb91)"><g transform="matrix(1, 0, 0, 1, 0, 0.000000000000005692)"><g clip-path="url(#b9d5524533)"><g clip-path="url(#3888c623b7)"><g mask="url(#9dec63c4b6)"><g transform="matrix(1, 0, 0, 1, 0, 0.000000000000005692)"><g clip-path="url(#c274cb43e8)"><g clip-path="url(#86a96e1f6b)"><path fill="url(#eb3a0ef053)" d="M 0.484375 0 L 0.484375 29.03125 L 29.515625 29.03125 L 29.515625 0 Z M 0.484375 0 " fill-rule="nonzero"/></g></g></g></g></g></g></g></g></g></g></g></svg>