<svg xmlns="http://www.w3.org/2000/svg" xmlns:xlink="http://www.w3.org/1999/xlink" width="40" zoomAndPan="magnify" viewBox="0 0 30 30.000001" height="40" preserveAspectRatio="xMidYMid meet" version="1.0"><defs><filter x="0%" y="0%" width="100%" height="100%" id="8d2178cceb"><feColorMatrix values="0 0 0 0 1 0 0 0 0 1 0 0 0 0 1 0 0 0 1 0" color-interpolation-filters="sRGB"/></filter><g/><clipPath id="2b8a6bb81c"><path d="M 0.484375 0 L 29.515625 0 L 29.515625 29.03125 L 0.484375 29.03125 Z M 0.484375 0 " clip-rule="nonzero"/></clipPath><clipPath id="cd2a4eafad"><path d="M 0.484375 0 L 29.515625 0 L 29.515625 29.03125 L 0.484375 29.03125 Z M 0.484375 0 " clip-rule="nonzero"/></clipPath><clipPath id="a8719b5c8d"><path d="M 0.484375 0 L 29.515625 0 L 29.515625 29.03125 L 0.484375 29.03125 Z M 0.484375 0 " clip-rule="nonzero"/></clipPath><linearGradient x1="0.332422" gradientTransform="matrix(0.72594, 0, 0, 0.724858, 0.242552, 3.031777)" y1="10.5" x2="40.32505" gradientUnits="userSpaceOnUse" y2="10.5" id="3135107189"><stop stop-opacity="1" stop-color="rgb(4.309082%, 15.689087%, 63.919067%)" offset="0"/><stop stop-opacity="1" stop-color="rgb(4.309082%, 15.689087%, 63.919067%)" offset="0.25"/><stop stop-opacity="1" stop-color="rgb(4.309082%, 15.689087%, 63.919067%)" offset="0.375"/><stop stop-opacity="1" stop-color="rgb(4.309082%, 15.689087%, 63.919067%)" offset="0.4375"/><stop stop-opacity="1" stop-color="rgb(4.309082%, 15.689087%, 63.919067%)" offset="0.445312"/><stop stop-opacity="1" stop-color="rgb(4.307556%, 15.896606%, 64.007568%)" offset="0.449219"/><stop stop-opacity="1" stop-color="rgb(4.307556%, 16.105652%, 64.096069%)" offset="0.453125"/><stop stop-opacity="1" stop-color="rgb(4.301453%, 17.137146%, 64.533997%)" offset="0.457031"/><stop stop-opacity="1" stop-color="rgb(4.296875%, 18.170166%, 64.97345%)" offset="0.460937"/><stop stop-opacity="1" stop-color="rgb(4.290771%, 19.20166%, 65.411377%)" offset="0.464844"/><stop stop-opacity="1" stop-color="rgb(4.286194%, 20.233154%, 65.85083%)" offset="0.46875"/><stop stop-opacity="1" stop-color="rgb(4.281616%, 21.264648%, 66.288757%)" offset="0.472656"/><stop stop-opacity="1" stop-color="rgb(4.277039%, 22.296143%, 66.726685%)" offset="0.476562"/><stop stop-opacity="1" stop-color="rgb(4.270935%, 23.327637%, 67.164612%)" offset="0.480469"/><stop stop-opacity="1" stop-color="rgb(4.266357%, 24.360657%, 67.604065%)" offset="0.484375"/><stop stop-opacity="1" stop-color="rgb(4.260254%, 25.392151%, 68.041992%)" offset="0.488281"/><stop stop-opacity="1" stop-color="rgb(4.255676%, 26.423645%, 68.481445%)" offset="0.492187"/><stop stop-opacity="1" stop-color="rgb(4.249573%, 27.455139%, 68.919373%)" offset="0.496094"/><stop stop-opacity="1" stop-color="rgb(4.244995%, 28.486633%, 69.3573%)" offset="0.5"/><stop stop-opacity="1" stop-color="rgb(4.240417%, 29.518127%, 69.795227%)" offset="0.503906"/><stop stop-opacity="1" stop-color="rgb(4.23584%, 30.551147%, 70.23468%)" offset="0.507812"/><stop stop-opacity="1" stop-color="rgb(4.229736%, 31.582642%, 70.672607%)" offset="0.511719"/><stop stop-opacity="1" stop-color="rgb(4.225159%, 32.614136%, 71.112061%)" offset="0.515625"/><stop stop-opacity="1" stop-color="rgb(4.219055%, 33.64563%, 71.549988%)" offset="0.519531"/><stop stop-opacity="1" stop-color="rgb(4.214478%, 34.67865%, 71.989441%)" offset="0.523438"/><stop stop-opacity="1" stop-color="rgb(4.208374%, 35.710144%, 72.427368%)" offset="0.527344"/><stop stop-opacity="1" stop-color="rgb(4.203796%, 36.741638%, 72.865295%)" offset="0.53125"/><stop stop-opacity="1" stop-color="rgb(4.199219%, 37.773132%, 73.303223%)" offset="0.535156"/><stop stop-opacity="1" stop-color="rgb(4.194641%, 38.804626%, 73.742676%)" offset="0.539062"/><stop stop-opacity="1" stop-color="rgb(4.188538%, 39.836121%, 74.180603%)" offset="0.542969"/><stop stop-opacity="1" stop-color="rgb(4.18396%, 40.869141%, 74.620056%)" offset="0.546875"/><stop stop-opacity="1" stop-color="rgb(4.177856%, 41.900635%, 75.057983%)" offset="0.550781"/><stop stop-opacity="1" stop-color="rgb(4.173279%, 42.932129%, 75.495911%)" offset="0.554688"/><stop stop-opacity="1" stop-color="rgb(4.168701%, 43.963623%, 75.933838%)" offset="0.558594"/><stop stop-opacity="1" stop-color="rgb(4.164124%, 44.995117%, 76.373291%)" offset="0.5625"/><stop stop-opacity="1" stop-color="rgb(4.15802%, 46.026611%, 76.811218%)" offset="0.566406"/><stop stop-opacity="1" stop-color="rgb(4.153442%, 47.059631%, 77.250671%)" offset="0.570312"/><stop stop-opacity="1" stop-color="rgb(4.147339%, 48.091125%, 77.688599%)" offset="0.574219"/><stop stop-opacity="1" stop-color="rgb(4.142761%, 49.12262%, 78.128052%)" offset="0.578125"/><stop stop-opacity="1" stop-color="rgb(4.136658%, 50.154114%, 78.565979%)" offset="0.582031"/><stop stop-opacity="1" stop-color="rgb(4.13208%, 51.187134%, 79.003906%)" offset="0.585938"/><stop stop-opacity="1" stop-color="rgb(4.127502%, 52.218628%, 79.441833%)" offset="0.589844"/><stop stop-opacity="1" stop-color="rgb(4.122925%, 53.250122%, 79.881287%)" offset="0.59375"/><stop stop-opacity="1" stop-color="rgb(4.116821%, 54.281616%, 80.319214%)" offset="0.597656"/><stop stop-opacity="1" stop-color="rgb(4.112244%, 55.31311%, 80.758667%)" offset="0.601562"/><stop stop-opacity="1" stop-color="rgb(4.10614%, 56.344604%, 81.196594%)" offset="0.605469"/><stop stop-opacity="1" stop-color="rgb(4.101562%, 57.377625%, 81.634521%)" offset="0.609375"/><stop stop-opacity="1" stop-color="rgb(4.096985%, 58.409119%, 82.072449%)" offset="0.613281"/><stop stop-opacity="1" stop-color="rgb(4.092407%, 59.440613%, 82.511902%)" offset="0.617188"/><stop stop-opacity="1" stop-color="rgb(4.086304%, 60.472107%, 82.949829%)" offset="0.621094"/><stop stop-opacity="1" stop-color="rgb(4.081726%, 61.503601%, 83.389282%)" offset="0.625"/><stop stop-opacity="1" stop-color="rgb(4.075623%, 62.535095%, 83.827209%)" offset="0.628906"/><stop stop-opacity="1" stop-color="rgb(4.071045%, 63.568115%, 84.266663%)" offset="0.632812"/><stop stop-opacity="1" stop-color="rgb(4.064941%, 64.599609%, 84.70459%)" offset="0.636719"/><stop stop-opacity="1" stop-color="rgb(4.060364%, 65.631104%, 85.142517%)" offset="0.640625"/><stop stop-opacity="1" stop-color="rgb(4.055786%, 66.662598%, 85.580444%)" offset="0.644531"/><stop stop-opacity="1" stop-color="rgb(4.051208%, 67.695618%, 86.019897%)" offset="0.648438"/><stop stop-opacity="1" stop-color="rgb(4.045105%, 68.727112%, 86.457825%)" offset="0.652344"/><stop stop-opacity="1" stop-color="rgb(4.040527%, 69.758606%, 86.897278%)" offset="0.65625"/><stop stop-opacity="1" stop-color="rgb(4.034424%, 70.7901%, 87.335205%)" offset="0.660156"/><stop stop-opacity="1" stop-color="rgb(4.029846%, 71.821594%, 87.773132%)" offset="0.664062"/><stop stop-opacity="1" stop-color="rgb(4.023743%, 72.853088%, 88.21106%)" offset="0.667969"/><stop stop-opacity="1" stop-color="rgb(4.019165%, 73.886108%, 88.650513%)" offset="0.671875"/><stop stop-opacity="1" stop-color="rgb(4.014587%, 74.917603%, 89.08844%)" offset="0.675781"/><stop stop-opacity="1" stop-color="rgb(4.01001%, 75.949097%, 89.527893%)" offset="0.679687"/><stop stop-opacity="1" stop-color="rgb(4.003906%, 76.980591%, 89.96582%)" offset="0.683594"/><stop stop-opacity="1" stop-color="rgb(3.999329%, 78.013611%, 90.405273%)" offset="0.6875"/><stop stop-opacity="1" stop-color="rgb(3.993225%, 79.045105%, 90.843201%)" offset="0.691406"/><stop stop-opacity="1" stop-color="rgb(3.988647%, 80.076599%, 91.281128%)" offset="0.695312"/><stop stop-opacity="1" stop-color="rgb(3.98407%, 81.108093%, 91.719055%)" offset="0.699219"/><stop stop-opacity="1" stop-color="rgb(3.979492%, 82.139587%, 92.158508%)" offset="0.703125"/><stop stop-opacity="1" stop-color="rgb(3.973389%, 83.171082%, 92.596436%)" offset="0.707031"/><stop stop-opacity="1" stop-color="rgb(3.968811%, 84.204102%, 93.035889%)" offset="0.710938"/><stop stop-opacity="1" stop-color="rgb(3.962708%, 85.235596%, 93.473816%)" offset="0.714844"/><stop stop-opacity="1" stop-color="rgb(3.95813%, 86.26709%, 93.911743%)" offset="0.71875"/><stop stop-opacity="1" stop-color="rgb(3.952026%, 87.298584%, 94.34967%)" offset="0.722656"/><stop stop-opacity="1" stop-color="rgb(3.947449%, 88.330078%, 94.789124%)" offset="0.726562"/><stop stop-opacity="1" stop-color="rgb(3.942871%, 89.361572%, 95.227051%)" offset="0.730469"/><stop stop-opacity="1" stop-color="rgb(3.938293%, 90.394592%, 95.666504%)" offset="0.734375"/><stop stop-opacity="1" stop-color="rgb(3.93219%, 91.426086%, 96.104431%)" offset="0.738281"/><stop stop-opacity="1" stop-color="rgb(3.927612%, 92.457581%, 96.543884%)" offset="0.742188"/><stop stop-opacity="1" stop-color="rgb(3.923035%, 93.287659%, 96.896362%)" offset="0.746094"/><stop stop-opacity="1" stop-color="rgb(3.919983%, 94.119263%, 97.24884%)" offset="0.75"/><stop stop-opacity="1" stop-color="rgb(3.919983%, 94.119263%, 97.24884%)" offset="1"/></linearGradient><clipPath id="e4284a1060"><rect x="0" width="30" y="0" height="30"/></clipPath><clipPath id="1a70cb0f2c"><path d="M 0.484375 0 L 29.515625 0 L 29.515625 29.03125 L 0.484375 29.03125 Z M 0.484375 0 " clip-rule="nonzero"/></clipPath><clipPath id="d706616bd9"><rect x="0" width="30" y="0" height="30"/></clipPath><clipPath id="2faa67d7dc"><rect x="0" width="30" y="0" height="30"/></clipPath><mask id="2a7192d0f9"><g filter="url(#8d2178cceb)"><g transform="matrix(1, 0, 0, 1, 0, 0.000000000000005692)"><g clip-path="url(#2faa67d7dc)"><g clip-path="url(#1a70cb0f2c)"><g transform="matrix(1, 0, 0, 1, 0, 0.000000000000005692)"><g clip-path="url(#d706616bd9)"><g fill="#000000" fill-opacity="1"><g transform="translate(13.831905, 14.635086)"><g><path d="M 8.703125 0.265625 L 8.875 0.34375 C 8.78125 0.65625 8.671875 0.914062 8.546875 1.125 C 8.429688 1.34375 8.296875 1.519531 8.140625 1.65625 C 7.992188 1.789062 7.789062 1.910156 7.53125 2.015625 C 7.28125 2.128906 6.957031 2.1875 6.5625 2.1875 C 6.15625 2.1875 5.757812 2.117188 5.375 1.984375 C 4.988281 1.847656 4.585938 1.679688 4.171875 1.484375 C 3.765625 1.296875 3.316406 1.117188 2.828125 0.953125 C 2.773438 0.941406 2.722656 0.925781 2.671875 0.90625 C 2.628906 0.894531 2.585938 0.882812 2.546875 0.875 C 2.398438 0.925781 2.238281 0.96875 2.0625 1 C 1.894531 1.03125 1.734375 1.046875 1.578125 1.046875 C 1.421875 1.046875 1.289062 1.023438 1.1875 0.984375 C 1.09375 0.953125 1.046875 0.894531 1.046875 0.8125 C 1.046875 0.644531 1.253906 0.5625 1.671875 0.5625 C 1.941406 0.5625 2.234375 0.59375 2.546875 0.65625 C 2.828125 0.582031 3.066406 0.492188 3.265625 0.390625 C 3.460938 0.296875 3.664062 0.207031 3.875 0.125 C 4.09375 0.0390625 4.351562 -0.0078125 4.65625 -0.03125 L 4.671875 0.15625 C 4.441406 0.175781 4.238281 0.21875 4.0625 0.28125 C 3.894531 0.351562 3.722656 0.425781 3.546875 0.5 C 3.378906 0.570312 3.179688 0.644531 2.953125 0.71875 C 3.335938 0.800781 3.757812 0.882812 4.21875 0.96875 C 4.675781 1.050781 5.117188 1.125 5.546875 1.1875 C 5.972656 1.25 6.335938 1.28125 6.640625 1.28125 C 7.191406 1.28125 7.628906 1.195312 7.953125 1.03125 C 8.273438 0.875 8.523438 0.617188 8.703125 0.265625 Z M 4.3125 -8.390625 C 5.050781 -8.390625 5.695312 -8.222656 6.25 -7.890625 C 6.800781 -7.554688 7.226562 -7.078125 7.53125 -6.453125 C 7.84375 -5.828125 8 -5.070312 8 -4.1875 C 8 -3.320312 7.84375 -2.5625 7.53125 -1.90625 C 7.21875 -1.257812 6.78125 -0.753906 6.21875 -0.390625 C 5.65625 -0.0234375 5.015625 0.15625 4.296875 0.15625 C 3.566406 0.15625 2.921875 -0.0078125 2.359375 -0.34375 C 1.804688 -0.675781 1.375 -1.15625 1.0625 -1.78125 C 0.757812 -2.40625 0.609375 -3.160156 0.609375 -4.046875 C 0.609375 -4.910156 0.765625 -5.664062 1.078125 -6.3125 C 1.398438 -6.96875 1.835938 -7.476562 2.390625 -7.84375 C 2.953125 -8.207031 3.59375 -8.390625 4.3125 -8.390625 Z M 4.265625 -8.1875 C 3.765625 -8.1875 3.328125 -8.007812 2.953125 -7.65625 C 2.578125 -7.3125 2.285156 -6.832031 2.078125 -6.21875 C 1.878906 -5.601562 1.78125 -4.894531 1.78125 -4.09375 C 1.78125 -3.269531 1.894531 -2.550781 2.125 -1.9375 C 2.351562 -1.332031 2.660156 -0.863281 3.046875 -0.53125 C 3.441406 -0.207031 3.875 -0.046875 4.34375 -0.046875 C 4.851562 -0.046875 5.289062 -0.21875 5.65625 -0.5625 C 6.03125 -0.914062 6.316406 -1.398438 6.515625 -2.015625 C 6.722656 -2.628906 6.828125 -3.335938 6.828125 -4.140625 C 6.828125 -4.960938 6.710938 -5.675781 6.484375 -6.28125 C 6.265625 -6.894531 5.957031 -7.363281 5.5625 -7.6875 C 5.175781 -8.019531 4.742188 -8.1875 4.265625 -8.1875 Z M 4.265625 -8.1875 "/></g></g></g></g></g></g></g></g></g></mask><clipPath id="74e72a900f"><path d="M 0.484375 0 L 29.515625 0 L 29.515625 29.03125 L 0.484375 29.03125 Z M 0.484375 0 " clip-rule="nonzero"/></clipPath><clipPath id="dab46ca716"><rect x="0" width="30" y="0" height="30"/></clipPath><clipPath id="8b623618a4"><rect x="0" width="30" y="0" height="30"/></clipPath></defs><g fill="#ffffff" fill-opacity="1"><g transform="translate(7.549143, 14.635086)"><g><path d="M 2.96875 -8.359375 C 3.363281 -8.359375 3.660156 -8.3125 3.859375 -8.21875 C 4.054688 -8.132812 4.234375 -8.035156 4.390625 -7.921875 C 4.484375 -7.867188 4.554688 -7.828125 4.609375 -7.796875 C 4.671875 -7.773438 4.734375 -7.765625 4.796875 -7.765625 C 4.867188 -7.765625 4.921875 -7.804688 4.953125 -7.890625 C 4.992188 -7.972656 5.023438 -8.101562 5.046875 -8.28125 L 5.3125 -8.28125 C 5.300781 -8.144531 5.289062 -7.984375 5.28125 -7.796875 C 5.269531 -7.617188 5.257812 -7.378906 5.25 -7.078125 C 5.25 -6.785156 5.25 -6.394531 5.25 -5.90625 L 4.984375 -5.90625 C 4.960938 -6.28125 4.878906 -6.632812 4.734375 -6.96875 C 4.597656 -7.3125 4.394531 -7.59375 4.125 -7.8125 C 3.863281 -8.03125 3.515625 -8.140625 3.078125 -8.140625 C 2.671875 -8.140625 2.332031 -8.015625 2.0625 -7.765625 C 1.789062 -7.515625 1.65625 -7.1875 1.65625 -6.78125 C 1.65625 -6.4375 1.742188 -6.144531 1.921875 -5.90625 C 2.109375 -5.675781 2.347656 -5.460938 2.640625 -5.265625 C 2.941406 -5.078125 3.265625 -4.875 3.609375 -4.65625 C 4.015625 -4.414062 4.375 -4.171875 4.6875 -3.921875 C 5 -3.679688 5.242188 -3.410156 5.421875 -3.109375 C 5.609375 -2.816406 5.703125 -2.460938 5.703125 -2.046875 C 5.703125 -1.546875 5.585938 -1.132812 5.359375 -0.8125 C 5.140625 -0.488281 4.84375 -0.242188 4.46875 -0.078125 C 4.101562 0.078125 3.695312 0.15625 3.25 0.15625 C 2.832031 0.15625 2.503906 0.109375 2.265625 0.015625 C 2.023438 -0.0664062 1.820312 -0.160156 1.65625 -0.265625 C 1.476562 -0.378906 1.34375 -0.4375 1.25 -0.4375 C 1.175781 -0.4375 1.117188 -0.390625 1.078125 -0.296875 C 1.046875 -0.210938 1.019531 -0.0859375 1 0.078125 L 0.734375 0.078125 C 0.742188 -0.078125 0.75 -0.265625 0.75 -0.484375 C 0.757812 -0.710938 0.765625 -1.003906 0.765625 -1.359375 C 0.773438 -1.710938 0.78125 -2.160156 0.78125 -2.703125 L 1.046875 -2.703125 C 1.078125 -2.242188 1.160156 -1.8125 1.296875 -1.40625 C 1.441406 -1 1.664062 -0.671875 1.96875 -0.421875 C 2.269531 -0.179688 2.664062 -0.0625 3.15625 -0.0625 C 3.414062 -0.0625 3.660156 -0.113281 3.890625 -0.21875 C 4.117188 -0.332031 4.304688 -0.5 4.453125 -0.71875 C 4.597656 -0.945312 4.671875 -1.242188 4.671875 -1.609375 C 4.671875 -1.929688 4.59375 -2.207031 4.4375 -2.4375 C 4.289062 -2.675781 4.082031 -2.898438 3.8125 -3.109375 C 3.539062 -3.316406 3.222656 -3.53125 2.859375 -3.75 C 2.492188 -3.96875 2.148438 -4.191406 1.828125 -4.421875 C 1.515625 -4.660156 1.265625 -4.929688 1.078125 -5.234375 C 0.890625 -5.546875 0.796875 -5.914062 0.796875 -6.34375 C 0.796875 -6.800781 0.894531 -7.175781 1.09375 -7.46875 C 1.300781 -7.769531 1.570312 -7.992188 1.90625 -8.140625 C 2.238281 -8.285156 2.59375 -8.359375 2.96875 -8.359375 Z M 2.96875 -8.359375 "/></g></g></g><g clip-path="url(#2b8a6bb81c)"><g transform="matrix(1, 0, 0, 1, 0, 0.000000000000005692)"><g clip-path="url(#8b623618a4)"><g clip-path="url(#cd2a4eafad)"><g mask="url(#2a7192d0f9)"><g transform="matrix(1, 0, 0, 1, 0, 0.000000000000005692)"><g clip-path="url(#dab46ca716)"><g clip-path="url(#74e72a900f)"><path fill="url(#3135107189)" d="M 0.484375 0 L 0.484375 29.03125 L 29.515625 29.03125 L 29.515625 0 Z M 0.484375 0 " fill-rule="nonzero"/></g></g></g></g></g></g></g></g></svg>