<svg xmlns="http://www.w3.org/2000/svg" xmlns:xlink="http://www.w3.org/1999/xlink" width="1000" zoomAndPan="magnify" viewBox="0 0 750 374.999991" height="500" preserveAspectRatio="xMidYMid meet" version="1.0"><defs><filter x="0%" y="0%" width="100%" height="100%" id="2c837ef8cb"><feColorMatrix values="0 0 0 0 1 0 0 0 0 1 0 0 0 0 1 0 0 0 1 0" color-interpolation-filters="sRGB"/></filter><g/><clipPath id="9ad27cd9a5"><path d="M 0 112.296875 L 234 112.296875 L 234 274.296875 L 0 274.296875 Z M 0 112.296875 " clip-rule="nonzero"/></clipPath><clipPath id="62a7e3d76b"><path d="M 70.097656 0 L 750 0 L 750 375 L 70.097656 375 Z M 70.097656 0 " clip-rule="nonzero"/></clipPath><clipPath id="fa75b542f0"><path d="M 0.0976562 0 L 680 0 L 680 375 L 0.0976562 375 Z M 0.0976562 0 " clip-rule="nonzero"/></clipPath><clipPath id="5830de8bb3"><path d="M 306.847656 0 L 680 0 L 680 375 L 306.847656 375 Z M 306.847656 0 " clip-rule="nonzero"/></clipPath><linearGradient x1="149.009995" gradientTransform="matrix(0.750354, 0, 0, 0.749814, 195.03678, 119.266795)" y1="90.5" x2="646.31289" gradientUnits="userSpaceOnUse" y2="90.5" id="1329374828"><stop stop-opacity="1" stop-color="rgb(4.309082%, 15.689087%, 63.919067%)" offset="0"/><stop stop-opacity="1" stop-color="rgb(4.309082%, 15.689087%, 63.919067%)" offset="0.5"/><stop stop-opacity="1" stop-color="rgb(4.309082%, 15.689087%, 63.919067%)" offset="0.515625"/><stop stop-opacity="1" stop-color="rgb(4.307556%, 15.925598%, 64.019775%)" offset="0.519531"/><stop stop-opacity="1" stop-color="rgb(4.307556%, 16.163635%, 64.120483%)" offset="0.523438"/><stop stop-opacity="1" stop-color="rgb(4.299927%, 17.437744%, 64.66217%)" offset="0.527344"/><stop stop-opacity="1" stop-color="rgb(4.293823%, 18.713379%, 65.203857%)" offset="0.53125"/><stop stop-opacity="1" stop-color="rgb(4.28772%, 19.987488%, 65.745544%)" offset="0.535156"/><stop stop-opacity="1" stop-color="rgb(4.281616%, 21.261597%, 66.287231%)" offset="0.539062"/><stop stop-opacity="1" stop-color="rgb(4.275513%, 22.535706%, 66.828918%)" offset="0.542969"/><stop stop-opacity="1" stop-color="rgb(4.269409%, 23.81134%, 67.370605%)" offset="0.546875"/><stop stop-opacity="1" stop-color="rgb(4.26178%, 25.085449%, 67.912292%)" offset="0.550781"/><stop stop-opacity="1" stop-color="rgb(4.255676%, 26.361084%, 68.453979%)" offset="0.554688"/><stop stop-opacity="1" stop-color="rgb(4.249573%, 27.635193%, 68.995667%)" offset="0.558594"/><stop stop-opacity="1" stop-color="rgb(4.243469%, 28.909302%, 69.537354%)" offset="0.5625"/><stop stop-opacity="1" stop-color="rgb(4.237366%, 30.183411%, 70.079041%)" offset="0.566406"/><stop stop-opacity="1" stop-color="rgb(4.231262%, 31.459045%, 70.620728%)" offset="0.570312"/><stop stop-opacity="1" stop-color="rgb(4.223633%, 32.733154%, 71.162415%)" offset="0.574219"/><stop stop-opacity="1" stop-color="rgb(4.217529%, 34.008789%, 71.704102%)" offset="0.578125"/><stop stop-opacity="1" stop-color="rgb(4.211426%, 35.282898%, 72.245789%)" offset="0.582031"/><stop stop-opacity="1" stop-color="rgb(4.205322%, 36.557007%, 72.787476%)" offset="0.585938"/><stop stop-opacity="1" stop-color="rgb(4.199219%, 37.831116%, 73.329163%)" offset="0.589844"/><stop stop-opacity="1" stop-color="rgb(4.193115%, 39.10675%, 73.87085%)" offset="0.59375"/><stop stop-opacity="1" stop-color="rgb(4.185486%, 40.380859%, 74.412537%)" offset="0.597656"/><stop stop-opacity="1" stop-color="rgb(4.179382%, 41.656494%, 74.954224%)" offset="0.601563"/><stop stop-opacity="1" stop-color="rgb(4.173279%, 42.930603%, 75.495911%)" offset="0.605469"/><stop stop-opacity="1" stop-color="rgb(4.167175%, 44.204712%, 76.037598%)" offset="0.609375"/><stop stop-opacity="1" stop-color="rgb(4.161072%, 45.478821%, 76.579285%)" offset="0.613281"/><stop stop-opacity="1" stop-color="rgb(4.154968%, 46.754456%, 77.120972%)" offset="0.617188"/><stop stop-opacity="1" stop-color="rgb(4.148865%, 48.028564%, 77.662659%)" offset="0.621094"/><stop stop-opacity="1" stop-color="rgb(4.142761%, 49.304199%, 78.204346%)" offset="0.625"/><stop stop-opacity="1" stop-color="rgb(4.135132%, 50.578308%, 78.746033%)" offset="0.628906"/><stop stop-opacity="1" stop-color="rgb(4.129028%, 51.852417%, 79.28772%)" offset="0.632812"/><stop stop-opacity="1" stop-color="rgb(4.122925%, 53.126526%, 79.829407%)" offset="0.636719"/><stop stop-opacity="1" stop-color="rgb(4.116821%, 54.402161%, 80.371094%)" offset="0.640625"/><stop stop-opacity="1" stop-color="rgb(4.110718%, 55.67627%, 80.912781%)" offset="0.644531"/><stop stop-opacity="1" stop-color="rgb(4.104614%, 56.951904%, 81.454468%)" offset="0.648438"/><stop stop-opacity="1" stop-color="rgb(4.096985%, 58.226013%, 81.996155%)" offset="0.652344"/><stop stop-opacity="1" stop-color="rgb(4.090881%, 59.501648%, 82.537842%)" offset="0.65625"/><stop stop-opacity="1" stop-color="rgb(4.084778%, 60.775757%, 83.079529%)" offset="0.660156"/><stop stop-opacity="1" stop-color="rgb(4.078674%, 62.049866%, 83.621216%)" offset="0.664063"/><stop stop-opacity="1" stop-color="rgb(4.072571%, 63.323975%, 84.162903%)" offset="0.667969"/><stop stop-opacity="1" stop-color="rgb(4.066467%, 64.599609%, 84.70459%)" offset="0.671875"/><stop stop-opacity="1" stop-color="rgb(4.058838%, 65.873718%, 85.246277%)" offset="0.675781"/><stop stop-opacity="1" stop-color="rgb(4.052734%, 67.149353%, 85.787964%)" offset="0.679688"/><stop stop-opacity="1" stop-color="rgb(4.046631%, 68.423462%, 86.329651%)" offset="0.683594"/><stop stop-opacity="1" stop-color="rgb(4.040527%, 69.697571%, 86.871338%)" offset="0.6875"/><stop stop-opacity="1" stop-color="rgb(4.034424%, 70.97168%, 87.413025%)" offset="0.691406"/><stop stop-opacity="1" stop-color="rgb(4.02832%, 72.247314%, 87.954712%)" offset="0.695312"/><stop stop-opacity="1" stop-color="rgb(4.020691%, 73.521423%, 88.496399%)" offset="0.699219"/><stop stop-opacity="1" stop-color="rgb(4.014587%, 74.797058%, 89.038086%)" offset="0.703125"/><stop stop-opacity="1" stop-color="rgb(4.008484%, 76.071167%, 89.579773%)" offset="0.707031"/><stop stop-opacity="1" stop-color="rgb(4.00238%, 77.345276%, 90.12146%)" offset="0.710938"/><stop stop-opacity="1" stop-color="rgb(3.996277%, 78.619385%, 90.663147%)" offset="0.714844"/><stop stop-opacity="1" stop-color="rgb(3.990173%, 79.89502%, 91.204834%)" offset="0.71875"/><stop stop-opacity="1" stop-color="rgb(3.98407%, 81.169128%, 91.746521%)" offset="0.722656"/><stop stop-opacity="1" stop-color="rgb(3.977966%, 82.444763%, 92.288208%)" offset="0.726562"/><stop stop-opacity="1" stop-color="rgb(3.970337%, 83.718872%, 92.829895%)" offset="0.730469"/><stop stop-opacity="1" stop-color="rgb(3.964233%, 84.992981%, 93.371582%)" offset="0.734375"/><stop stop-opacity="1" stop-color="rgb(3.95813%, 86.26709%, 93.913269%)" offset="0.738281"/><stop stop-opacity="1" stop-color="rgb(3.952026%, 87.542725%, 94.454956%)" offset="0.742188"/><stop stop-opacity="1" stop-color="rgb(3.945923%, 88.816833%, 94.996643%)" offset="0.746094"/><stop stop-opacity="1" stop-color="rgb(3.939819%, 90.092468%, 95.53833%)" offset="0.75"/><stop stop-opacity="1" stop-color="rgb(3.93219%, 91.366577%, 96.080017%)" offset="0.753906"/><stop stop-opacity="1" stop-color="rgb(3.926086%, 92.640686%, 96.621704%)" offset="0.757812"/><stop stop-opacity="1" stop-color="rgb(3.923035%, 93.379211%, 96.934509%)" offset="0.761719"/><stop stop-opacity="1" stop-color="rgb(3.919983%, 94.119263%, 97.24884%)" offset="0.765625"/><stop stop-opacity="1" stop-color="rgb(3.919983%, 94.119263%, 97.24884%)" offset="0.78125"/><stop stop-opacity="1" stop-color="rgb(3.919983%, 94.119263%, 97.24884%)" offset="0.8125"/><stop stop-opacity="1" stop-color="rgb(3.919983%, 94.119263%, 97.24884%)" offset="0.875"/><stop stop-opacity="1" stop-color="rgb(3.919983%, 94.119263%, 97.24884%)" offset="1"/></linearGradient><clipPath id="efc9e63cdd"><rect x="0" width="680" y="0" height="375"/></clipPath><clipPath id="baf86e7bfd"><path d="M 0.0976562 0 L 680 0 L 680 375 L 0.0976562 375 Z M 0.0976562 0 " clip-rule="nonzero"/></clipPath><clipPath id="2d3b34ed06"><rect x="0" width="680" y="0" height="375"/></clipPath><clipPath id="4cd2290c44"><rect x="0" width="680" y="0" height="375"/></clipPath><mask id="3ce5023bf2"><g filter="url(#2c837ef8cb)"><g><g clip-path="url(#4cd2290c44)"><g clip-path="url(#baf86e7bfd)"><g><g clip-path="url(#2d3b34ed06)"><g fill="#000000" fill-opacity="1"><g transform="translate(501.542247, 220.874985)"><g><path d="M 46.140625 -75.921875 C 51.847656 -75.921875 57.164062 -74.914062 62.09375 -72.90625 C 67.03125 -70.894531 71.316406 -68.132812 74.953125 -64.625 C 78.585938 -61.125 81.441406 -56.988281 83.515625 -52.21875 C 85.597656 -47.445312 86.640625 -42.304688 86.640625 -36.796875 C 86.640625 -30.691406 85.390625 -25.125 82.890625 -20.09375 C 80.390625 -15.070312 77.0625 -10.742188 72.90625 -7.109375 C 70.1875 -4.773438 67.140625 -2.8125 63.765625 -1.21875 C 60.390625 0.375 56.851562 1.851562 53.15625 3.21875 C 51.394531 3.925781 49.6875 4.671875 48.03125 5.453125 C 46.382812 6.234375 44.878906 7.140625 43.515625 8.171875 L 43.515625 8.5625 C 43.898438 8.5 44.429688 8.453125 45.109375 8.421875 C 45.796875 8.390625 46.398438 8.375 46.921875 8.375 C 49.835938 8.375 52.5625 8.742188 55.09375 9.484375 C 57.625 10.234375 60.085938 11.078125 62.484375 12.015625 C 64.890625 12.960938 67.289062 13.804688 69.6875 14.546875 C 72.09375 15.296875 74.628906 15.671875 77.296875 15.671875 C 80.335938 15.671875 82.632812 15.019531 84.1875 13.71875 C 85.75 12.425781 87.019531 10.191406 88 7.015625 L 90.4375 7.015625 C 90.5625 7.597656 90.65625 8.242188 90.71875 8.953125 C 90.789062 9.671875 90.828125 10.382812 90.828125 11.09375 C 90.828125 13.175781 90.382812 15.078125 89.5 16.796875 C 88.625 18.515625 87.425781 20.003906 85.90625 21.265625 C 84.382812 22.535156 82.582031 23.523438 80.5 24.234375 C 78.425781 24.953125 76.1875 25.3125 73.78125 25.3125 C 70.144531 25.3125 66.785156 24.613281 63.703125 23.21875 C 60.628906 21.820312 57.710938 20.296875 54.953125 18.640625 C 52.191406 16.984375 49.546875 15.457031 47.015625 14.0625 C 44.484375 12.664062 41.984375 11.96875 39.515625 11.96875 C 37.828125 11.96875 36.460938 12.289062 35.421875 12.9375 C 34.390625 13.59375 33.453125 14.328125 32.609375 15.140625 C 31.765625 15.953125 30.96875 16.679688 30.21875 17.328125 C 29.476562 17.972656 28.554688 18.296875 27.453125 18.296875 C 25.566406 18.296875 24.625 17.484375 24.625 15.859375 C 24.625 15.410156 24.6875 15.023438 24.8125 14.703125 C 24.945312 14.378906 25.222656 14.003906 25.640625 13.578125 C 26.066406 13.160156 26.703125 12.675781 27.546875 12.125 C 28.390625 11.570312 29.554688 10.875 31.046875 10.03125 L 43.703125 2.828125 C 38.253906 2.628906 33.191406 1.476562 28.515625 -0.625 C 23.847656 -2.738281 19.828125 -5.5625 16.453125 -9.09375 C 13.078125 -12.632812 10.429688 -16.753906 8.515625 -21.453125 C 6.597656 -26.160156 5.640625 -31.207031 5.640625 -36.59375 C 5.640625 -42.175781 6.675781 -47.367188 8.75 -52.171875 C 10.832031 -56.972656 13.691406 -61.125 17.328125 -64.625 C 20.960938 -68.132812 25.242188 -70.894531 30.171875 -72.90625 C 35.109375 -74.914062 40.429688 -75.921875 46.140625 -75.921875 Z M 46.140625 -1.953125 C 50.421875 -1.953125 54.265625 -2.757812 57.671875 -4.375 C 61.078125 -6 64 -8.316406 66.4375 -11.328125 C 68.875 -14.347656 70.738281 -17.984375 72.03125 -22.234375 C 73.332031 -26.492188 73.984375 -31.28125 73.984375 -36.59375 C 73.984375 -41.789062 73.332031 -46.484375 72.03125 -50.671875 C 70.738281 -54.859375 68.890625 -58.425781 66.484375 -61.375 C 64.085938 -64.320312 61.164062 -66.59375 57.71875 -68.1875 C 54.28125 -69.78125 50.421875 -70.578125 46.140625 -70.578125 C 41.859375 -70.578125 37.992188 -69.78125 34.546875 -68.1875 C 31.109375 -66.59375 28.1875 -64.320312 25.78125 -61.375 C 23.382812 -58.425781 21.535156 -54.859375 20.234375 -50.671875 C 18.941406 -46.484375 18.296875 -41.789062 18.296875 -36.59375 C 18.296875 -31.28125 18.941406 -26.492188 20.234375 -22.234375 C 21.535156 -17.984375 23.382812 -14.347656 25.78125 -11.328125 C 28.1875 -8.316406 31.109375 -6 34.546875 -4.375 C 37.992188 -2.757812 41.859375 -1.953125 46.140625 -1.953125 Z M 46.140625 -1.953125 "/></g></g></g></g></g></g></g></g></g></mask><clipPath id="c62147fe64"><path d="M 306.847656 0 L 680 0 L 680 375 L 306.847656 375 Z M 306.847656 0 " clip-rule="nonzero"/></clipPath><clipPath id="86a386ea62"><rect x="0" width="680" y="0" height="375"/></clipPath><clipPath id="f604691125"><rect x="0" width="680" y="0" height="375"/></clipPath></defs><g clip-path="url(#9ad27cd9a5)"><path fill="#24165e" d="M 96.3125 220.53125 C 98.667969 217.875 102.878906 217.496094 105.714844 219.683594 C 108.550781 221.867188 108.9375 225.789062 106.578125 228.441406 L 81.121094 257.074219 C 81.964844 258.621094 82.4375 260.351562 82.4375 262.183594 C 82.4375 268.738281 76.382812 274.050781 68.917969 274.050781 C 61.453125 274.050781 55.398438 268.738281 55.398438 262.183594 C 55.398438 255.625 61.453125 250.3125 68.917969 250.3125 C 69.21875 250.3125 69.511719 250.320312 69.808594 250.339844 Z M 126.65625 135.449219 C 134.121094 135.449219 140.171875 140.683594 140.171875 147.136719 C 140.171875 149.554688 139.324219 151.800781 137.871094 153.664062 L 167.707031 183.46875 L 187.152344 161.402344 C 189.507812 158.730469 193.714844 158.316406 196.546875 160.480469 C 199.378906 162.648438 199.761719 166.570312 197.40625 169.246094 L 176.832031 192.585938 L 193.714844 209.449219 C 194.550781 209.3125 195.410156 209.238281 196.292969 209.238281 C 203.761719 209.238281 209.8125 214.46875 209.8125 220.925781 C 209.8125 227.378906 203.761719 232.613281 196.292969 232.613281 C 188.828125 232.613281 182.777344 227.378906 182.777344 220.925781 C 182.777344 219.683594 183 218.488281 183.414062 217.363281 L 168.300781 202.265625 C 165.921875 204.816406 161.8125 205.179688 159.03125 203.050781 C 156.199219 200.886719 155.8125 196.960938 158.171875 194.289062 L 159.175781 193.148438 L 126.765625 160.769531 L 108.019531 179.105469 L 168.984375 240.011719 C 170.195312 239.703125 171.476562 239.539062 172.800781 239.539062 C 180.265625 239.539062 186.320312 244.769531 186.320312 251.226562 C 186.320312 257.679688 180.265625 262.914062 172.800781 262.914062 C 165.335938 262.914062 159.285156 257.679688 159.285156 251.226562 C 159.285156 250.398438 159.382812 249.589844 159.574219 248.808594 L 98.8125 188.109375 L 51.523438 234.359375 C 51.980469 235.53125 52.226562 236.785156 52.226562 238.09375 C 52.226562 244.546875 46.175781 249.78125 38.710938 249.78125 C 31.246094 249.78125 25.191406 244.546875 25.191406 238.09375 C 25.191406 231.636719 31.246094 226.40625 38.710938 226.40625 C 39.515625 226.40625 40.304688 226.464844 41.070312 226.582031 L 58.960938 209.085938 L 44.160156 194.296875 L 26.121094 212.320312 C 26.710938 213.632812 27.035156 215.058594 27.035156 216.554688 C 27.035156 223.007812 20.984375 228.242188 13.519531 228.242188 C 6.050781 228.242188 0 223.007812 0 216.554688 C 0 210.097656 6.050781 204.867188 13.519531 204.867188 C 14.132812 204.867188 14.738281 204.902344 15.328125 204.96875 C 15.496094 204.757812 15.675781 204.550781 15.875 204.355469 L 75.84375 144.445312 C 78.367188 141.925781 82.59375 141.777344 85.285156 144.117188 C 87.976562 146.453125 88.113281 150.390625 85.589844 152.910156 L 53.269531 185.199219 L 68.167969 200.082031 L 115.523438 153.769531 C 114.019531 151.882812 113.136719 149.601562 113.136719 147.136719 C 113.136719 140.683594 119.1875 135.449219 126.65625 135.449219 Z M 220.234375 178.820312 C 227.699219 178.820312 233.75 184.050781 233.75 190.507812 C 233.75 196.960938 227.699219 202.195312 220.234375 202.195312 C 212.769531 202.195312 206.714844 196.960938 206.714844 190.507812 C 206.714844 184.050781 212.769531 178.820312 220.234375 178.820312 Z M 147.773438 112.628906 C 155.238281 112.628906 161.292969 117.863281 161.292969 124.316406 C 161.292969 125.710938 161.007812 127.042969 160.492188 128.28125 L 164.425781 132.648438 L 181.453125 149.984375 C 183.953125 152.53125 183.792969 156.472656 181.089844 158.792969 C 178.386719 161.109375 174.167969 160.921875 171.667969 158.378906 L 154.539062 140.941406 L 154.441406 140.839844 L 154.347656 140.738281 L 149.953125 135.851562 C 149.242188 135.953125 148.515625 136.003906 147.773438 136.003906 C 140.308594 136.003906 134.253906 130.773438 134.253906 124.316406 C 134.253906 117.863281 140.308594 112.628906 147.773438 112.628906 Z M 98.972656 112.300781 C 106.441406 112.300781 112.492188 117.535156 112.492188 123.988281 C 112.492188 130.441406 106.441406 135.675781 98.972656 135.675781 C 91.507812 135.675781 85.457031 130.441406 85.457031 123.988281 C 85.457031 117.535156 91.507812 112.300781 98.972656 112.300781 Z M 98.972656 112.300781 " fill-opacity="1" fill-rule="nonzero"/></g><g fill="#24165e" fill-opacity="1"><g transform="translate(278.749298, 220.874985)"><g><path d="M 5.640625 -22.875 L 9.25 -22.875 C 9.695312 -19.957031 10.550781 -17.328125 11.8125 -14.984375 C 13.082031 -12.648438 14.675781 -10.671875 16.59375 -9.046875 C 18.507812 -7.429688 20.71875 -6.179688 23.21875 -5.296875 C 25.71875 -4.421875 28.425781 -3.984375 31.34375 -3.984375 C 36.144531 -3.984375 39.941406 -5.117188 42.734375 -7.390625 C 45.523438 -9.671875 46.921875 -12.753906 46.921875 -16.640625 C 46.921875 -18.265625 46.644531 -19.757812 46.09375 -21.125 C 45.539062 -22.488281 44.613281 -23.800781 43.3125 -25.0625 C 42.019531 -26.332031 40.285156 -27.582031 38.109375 -28.8125 C 35.929688 -30.039062 33.191406 -31.375 29.890625 -32.8125 C 25.859375 -34.5625 22.476562 -36.242188 19.75 -37.859375 C 17.03125 -39.484375 14.859375 -41.171875 13.234375 -42.921875 C 11.617188 -44.679688 10.46875 -46.550781 9.78125 -48.53125 C 9.101562 -50.507812 8.765625 -52.765625 8.765625 -55.296875 C 8.765625 -58.273438 9.296875 -61.03125 10.359375 -63.5625 C 11.429688 -66.09375 12.941406 -68.28125 14.890625 -70.125 C 16.835938 -71.976562 19.140625 -73.40625 21.796875 -74.40625 C 24.460938 -75.414062 27.382812 -75.921875 30.5625 -75.921875 C 33.414062 -75.921875 36.078125 -75.46875 38.546875 -74.5625 C 41.015625 -73.65625 43.515625 -72.195312 46.046875 -70.1875 L 48.578125 -74.5625 L 50.8125 -74.5625 L 51.890625 -55.1875 L 48.28125 -55.1875 C 46.726562 -60.507812 44.472656 -64.46875 41.515625 -67.0625 C 38.566406 -69.664062 35.015625 -70.96875 30.859375 -70.96875 C 26.898438 -70.96875 23.75 -69.992188 21.40625 -68.046875 C 19.070312 -66.097656 17.90625 -63.46875 17.90625 -60.15625 C 17.90625 -58.601562 18.164062 -57.191406 18.6875 -55.921875 C 19.207031 -54.660156 20.050781 -53.460938 21.21875 -52.328125 C 22.382812 -51.191406 23.910156 -50.054688 25.796875 -48.921875 C 27.679688 -47.785156 30.019531 -46.597656 32.8125 -45.359375 C 37.613281 -43.222656 41.601562 -41.226562 44.78125 -39.375 C 47.957031 -37.519531 50.484375 -35.664062 52.359375 -33.8125 C 54.242188 -31.96875 55.578125 -30.023438 56.359375 -27.984375 C 57.140625 -25.941406 57.53125 -23.65625 57.53125 -21.125 C 57.53125 -17.875 56.878906 -14.882812 55.578125 -12.15625 C 54.285156 -9.4375 52.46875 -7.101562 50.125 -5.15625 C 47.789062 -3.207031 45 -1.695312 41.75 -0.625 C 38.507812 0.4375 34.941406 0.96875 31.046875 0.96875 C 27.347656 0.96875 24.019531 0.453125 21.0625 -0.578125 C 18.113281 -1.617188 15.117188 -3.375 12.078125 -5.84375 L 9.34375 -1.078125 L 7.109375 -1.078125 Z M 5.640625 -22.875 "/></g></g></g><g fill="#24165e" fill-opacity="1"><g transform="translate(339.681472, 220.874985)"><g><path d="M 27.359375 15.28125 C 24.367188 21.96875 19.726562 25.3125 13.4375 25.3125 C 9.34375 25.3125 7.296875 23.785156 7.296875 20.734375 C 7.296875 19.109375 7.863281 17.921875 9 17.171875 C 10.132812 16.429688 12.226562 15.800781 15.28125 15.28125 C 16.644531 15.082031 17.8125 14.804688 18.78125 14.453125 C 19.757812 14.097656 20.632812 13.644531 21.40625 13.09375 C 22.1875 12.539062 22.882812 11.84375 23.5 11 C 24.125 10.15625 24.726562 9.117188 25.3125 7.890625 L 28.71875 1.078125 L 10.03125 -39.515625 C 9.1875 -41.335938 8.453125 -42.78125 7.828125 -43.84375 C 7.210938 -44.914062 6.5625 -45.757812 5.875 -46.375 C 5.195312 -47 4.4375 -47.421875 3.59375 -47.640625 C 2.757812 -47.867188 1.691406 -48.050781 0.390625 -48.1875 L 0.390625 -51.59375 L 26.1875 -51.59375 L 26.1875 -48.1875 C 21.832031 -48.1875 19.65625 -47.113281 19.65625 -44.96875 C 19.65625 -44.125 19.914062 -42.789062 20.4375 -40.96875 C 20.957031 -39.15625 21.609375 -37.3125 22.390625 -35.4375 L 33.09375 -9.546875 L 33.578125 -9.546875 L 42.4375 -31.4375 C 43.28125 -33.582031 43.976562 -35.335938 44.53125 -36.703125 C 45.082031 -38.066406 45.503906 -39.1875 45.796875 -40.0625 C 46.085938 -40.9375 46.28125 -41.664062 46.375 -42.25 C 46.476562 -42.832031 46.53125 -43.382812 46.53125 -43.90625 C 46.53125 -45.59375 46.054688 -46.726562 45.109375 -47.3125 C 44.171875 -47.894531 42.375 -48.1875 39.71875 -48.1875 L 39.71875 -51.59375 L 61.125 -51.59375 L 61.125 -48.1875 C 59.894531 -48.1875 58.859375 -48.023438 58.015625 -47.703125 C 57.171875 -47.378906 56.3125 -46.644531 55.4375 -45.5 C 54.5625 -44.363281 53.585938 -42.722656 52.515625 -40.578125 C 51.441406 -38.441406 50.128906 -35.554688 48.578125 -31.921875 Z M 27.359375 15.28125 "/></g></g></g><g fill="#24165e" fill-opacity="1"><g transform="translate(401.879135, 220.874985)"><g><path d="M 21.03125 -15.28125 C 21.03125 -12.625 21.09375 -10.53125 21.21875 -9 C 21.351562 -7.476562 21.695312 -6.3125 22.25 -5.5 C 22.800781 -4.6875 23.609375 -4.148438 24.671875 -3.890625 C 25.742188 -3.628906 27.222656 -3.4375 29.109375 -3.3125 L 29.109375 0 L 3.609375 0 L 3.609375 -3.3125 C 5.421875 -3.4375 6.863281 -3.628906 7.9375 -3.890625 C 9.007812 -4.148438 9.835938 -4.671875 10.421875 -5.453125 C 11.003906 -6.234375 11.375 -7.335938 11.53125 -8.765625 C 11.695312 -10.191406 11.78125 -12.132812 11.78125 -14.59375 L 11.78125 -27.546875 C 11.78125 -35.265625 11.582031 -39.96875 11.1875 -41.65625 C 11 -42.5 10.757812 -43.195312 10.46875 -43.75 C 10.175781 -44.300781 9.738281 -44.722656 9.15625 -45.015625 C 8.570312 -45.304688 7.820312 -45.5 6.90625 -45.59375 C 6 -45.695312 4.832031 -45.75 3.40625 -45.75 L 3.40625 -48.859375 L 18.984375 -52.5625 L 20.15625 -42.921875 L 20.546875 -42.921875 C 23.003906 -45.972656 25.890625 -48.34375 29.203125 -50.03125 C 32.515625 -51.71875 36.117188 -52.5625 40.015625 -52.5625 C 42.992188 -52.5625 45.71875 -52.070312 48.1875 -51.09375 C 50.65625 -50.125 52.535156 -48.796875 53.828125 -47.109375 C 54.929688 -45.617188 55.707031 -43.6875 56.15625 -41.3125 C 56.613281 -38.945312 56.84375 -35.691406 56.84375 -31.546875 L 56.84375 -15.28125 C 56.84375 -12.625 56.921875 -10.53125 57.078125 -9 C 57.242188 -7.476562 57.585938 -6.3125 58.109375 -5.5 C 58.628906 -4.6875 59.425781 -4.148438 60.5 -3.890625 C 61.570312 -3.628906 62.984375 -3.4375 64.734375 -3.3125 L 64.734375 0 L 39.515625 0 L 39.515625 -3.3125 C 41.335938 -3.375 42.78125 -3.550781 43.84375 -3.84375 C 44.914062 -4.132812 45.726562 -4.671875 46.28125 -5.453125 C 46.832031 -6.234375 47.1875 -7.351562 47.34375 -8.8125 C 47.507812 -10.269531 47.59375 -12.195312 47.59375 -14.59375 L 47.59375 -27.453125 C 47.59375 -31.148438 47.398438 -34.265625 47.015625 -36.796875 C 46.628906 -39.328125 45.992188 -41.367188 45.109375 -42.921875 C 44.234375 -44.484375 43.082031 -45.601562 41.65625 -46.28125 C 40.226562 -46.96875 38.507812 -47.3125 36.5 -47.3125 C 33.582031 -47.3125 30.90625 -46.546875 28.46875 -45.015625 C 26.039062 -43.492188 24.144531 -41.40625 22.78125 -38.75 C 22.457031 -38.09375 22.179688 -37.472656 21.953125 -36.890625 C 21.722656 -36.304688 21.539062 -35.625 21.40625 -34.84375 C 21.28125 -34.070312 21.1875 -33.179688 21.125 -32.171875 C 21.0625 -31.160156 21.03125 -29.878906 21.03125 -28.328125 Z M 21.03125 -15.28125 "/></g></g></g><g fill="#24165e" fill-opacity="1"><g transform="translate(468.943591, 220.874985)"><g><path d="M 3.890625 -45.453125 L 3.890625 -49.0625 C 7.328125 -51.070312 10.019531 -53.082031 11.96875 -55.09375 C 13.914062 -57.101562 15.410156 -59.503906 16.453125 -62.296875 L 19.28125 -62.296875 L 19.28125 -50.03125 L 32.3125 -50.03125 L 32.3125 -45.453125 L 19.28125 -45.453125 L 19.28125 -15.859375 C 19.28125 -13.585938 19.390625 -11.671875 19.609375 -10.109375 C 19.835938 -8.554688 20.210938 -7.3125 20.734375 -6.375 C 21.253906 -5.4375 21.9375 -4.769531 22.78125 -4.375 C 23.625 -3.988281 24.691406 -3.796875 25.984375 -3.796875 C 27.609375 -3.796875 28.988281 -4.132812 30.125 -4.8125 C 31.257812 -5.5 32.378906 -6.65625 33.484375 -8.28125 L 35.921875 -6.421875 C 35.015625 -4.023438 33.441406 -2.191406 31.203125 -0.921875 C 28.960938 0.335938 26.1875 0.96875 22.875 0.96875 C 18.59375 0.96875 15.332031 -0.0507812 13.09375 -2.09375 C 10.851562 -4.132812 9.734375 -7.070312 9.734375 -10.90625 L 9.734375 -45.453125 Z M 3.890625 -45.453125 "/></g></g></g><g fill="#24165e" fill-opacity="1"><g transform="translate(505.736573, 220.874985)"><g><path d="M 20.25 -15.484375 C 20.25 -12.816406 20.3125 -10.703125 20.4375 -9.140625 C 20.570312 -7.585938 20.914062 -6.40625 21.46875 -5.59375 C 22.019531 -4.78125 22.8125 -4.242188 23.84375 -3.984375 C 24.882812 -3.734375 26.347656 -3.539062 28.234375 -3.40625 L 28.234375 0 L 2.34375 0 L 2.34375 -3.40625 C 4.21875 -3.539062 5.707031 -3.734375 6.8125 -3.984375 C 7.914062 -4.242188 8.757812 -4.765625 9.34375 -5.546875 C 9.925781 -6.328125 10.296875 -7.445312 10.453125 -8.90625 C 10.617188 -10.363281 10.703125 -12.328125 10.703125 -14.796875 L 10.703125 -55.578125 C 10.703125 -59.410156 10.65625 -62.460938 10.5625 -64.734375 C 10.46875 -67.003906 10.289062 -68.722656 10.03125 -69.890625 C 9.894531 -70.671875 9.679688 -71.300781 9.390625 -71.78125 C 9.097656 -72.269531 8.660156 -72.660156 8.078125 -72.953125 C 7.492188 -73.242188 6.710938 -73.453125 5.734375 -73.578125 C 4.765625 -73.710938 3.566406 -73.78125 2.140625 -73.78125 L 2.140625 -77.09375 L 20.046875 -80.796875 L 20.046875 -43.703125 L 20.4375 -43.703125 C 21.414062 -45.003906 22.632812 -46.1875 24.09375 -47.25 C 25.550781 -48.320312 27.125 -49.25 28.8125 -50.03125 C 30.5 -50.8125 32.265625 -51.425781 34.109375 -51.875 C 35.960938 -52.332031 37.765625 -52.5625 39.515625 -52.5625 C 42.503906 -52.5625 45.25 -52.039062 47.75 -51 C 50.25 -49.96875 52.175781 -48.578125 53.53125 -46.828125 C 54.632812 -45.328125 55.445312 -43.359375 55.96875 -40.921875 C 56.488281 -38.492188 56.75 -35.203125 56.75 -31.046875 L 56.75 -15.484375 C 56.75 -12.816406 56.8125 -10.71875 56.9375 -9.1875 C 57.070312 -7.664062 57.414062 -6.484375 57.96875 -5.640625 C 58.519531 -4.796875 59.3125 -4.242188 60.34375 -3.984375 C 61.382812 -3.734375 62.847656 -3.539062 64.734375 -3.40625 L 64.734375 0 L 38.9375 0 L 38.9375 -3.40625 C 40.75 -3.46875 42.207031 -3.644531 43.3125 -3.9375 C 44.414062 -4.226562 45.242188 -4.765625 45.796875 -5.546875 C 46.347656 -6.328125 46.703125 -7.445312 46.859375 -8.90625 C 47.023438 -10.363281 47.109375 -12.328125 47.109375 -14.796875 L 47.109375 -27.0625 C 47.109375 -34.332031 46.265625 -39.507812 44.578125 -42.59375 C 42.890625 -45.675781 40.066406 -47.21875 36.109375 -47.21875 C 33.066406 -47.21875 30.296875 -46.4375 27.796875 -44.875 C 25.296875 -43.320312 23.332031 -41.179688 21.90625 -38.453125 C 21.582031 -37.734375 21.304688 -37.066406 21.078125 -36.453125 C 20.847656 -35.835938 20.664062 -35.140625 20.53125 -34.359375 C 20.40625 -33.578125 20.328125 -32.679688 20.296875 -31.671875 C 20.265625 -30.671875 20.25 -29.425781 20.25 -27.9375 Z M 20.25 -15.484375 "/></g></g></g><g fill="#24165e" fill-opacity="1"><g transform="translate(661.190679, 220.874985)"><g><path d="M 47.5 -27.15625 L 21.515625 -27.15625 C 20.410156 -24.5 19.46875 -22.144531 18.6875 -20.09375 C 17.90625 -18.050781 17.269531 -16.285156 16.78125 -14.796875 C 16.300781 -13.304688 15.960938 -12.039062 15.765625 -11 C 15.578125 -9.957031 15.484375 -9.113281 15.484375 -8.46875 C 15.484375 -6.65625 16.066406 -5.40625 17.234375 -4.71875 C 18.398438 -4.039062 20.347656 -3.703125 23.078125 -3.703125 L 23.078125 0 L -0.578125 0 L -0.578125 -3.703125 C 0.910156 -3.890625 2.1875 -4.144531 3.25 -4.46875 C 4.320312 -4.800781 5.265625 -5.257812 6.078125 -5.84375 C 6.890625 -6.425781 7.601562 -7.1875 8.21875 -8.125 C 8.84375 -9.070312 9.445312 -10.222656 10.03125 -11.578125 L 35.328125 -74.953125 L 39.515625 -74.953125 L 61.625 -20.046875 C 63.113281 -16.410156 64.410156 -13.503906 65.515625 -11.328125 C 66.617188 -9.160156 67.6875 -7.523438 68.71875 -6.421875 C 69.757812 -5.316406 70.878906 -4.601562 72.078125 -4.28125 C 73.285156 -3.957031 74.734375 -3.796875 76.421875 -3.796875 L 76.421875 0 L 44.6875 0 L 44.6875 -3.796875 C 48.125 -3.796875 50.488281 -4.117188 51.78125 -4.765625 C 53.082031 -5.421875 53.734375 -6.492188 53.734375 -7.984375 C 53.734375 -8.628906 53.695312 -9.226562 53.625 -9.78125 C 53.5625 -10.332031 53.445312 -10.929688 53.28125 -11.578125 C 53.125 -12.234375 52.898438 -12.960938 52.609375 -13.765625 C 52.316406 -14.578125 51.945312 -15.535156 51.5 -16.640625 Z M 23.453125 -32.03125 L 45.65625 -32.03125 L 34.84375 -60.75 Z M 23.453125 -32.03125 "/></g></g></g><g clip-path="url(#62a7e3d76b)"><g transform="matrix(1, 0, 0, 1, 70, 0)"><g clip-path="url(#f604691125)"><g clip-path="url(#fa75b542f0)"><g mask="url(#3ce5023bf2)"><g><g clip-path="url(#86a386ea62)"><g clip-path="url(#c62147fe64)"><path fill="url(#1329374828)" d="M 306.847656 0 L 306.847656 375 L 680 375 L 680 0 Z M 306.847656 0 " fill-rule="nonzero"/></g></g></g></g></g></g></g></g></svg>